PathFileType	4	(X/Y/Z)	C:/Users/beibeiliu/ov580/test_trc/capture2\sequence.17_training_dense_right.trc
DataRate	CameraRate	NumFrames	NumMarkers	Units	OrigDataRate	OrigDataStartFrame	OrigNumFrames
120	120	12	19	mm	120	1	400
Frame#	Time	ThumbCMC			ThumbMCP			ThumbIP			ThumbTip			IndexMCP			IndexPIP			IndexTip			MiddleMCP			MiddlePIP			MiddleTip			RingMCP			RingPIP			RingTip			PinkyMCP			PinkyPIP			PinkyTip			BackHand1			BackHand2			BackHand3	
		X0	Y0	Z0	X1	Y1	Z1	X2	Y2	Z2	X3	Y3	Z3	X4	Y4	Z4	X5	Y5	Z5	X6	Y6	Z6	X7	Y7	Z7	X8	Y8	Z8	X9	Y9	Z9	X10	Y10	Z10	X11	Y11	Z11	X12	Y12	Z12	X13	Y13	Z13	X14	Y14	Z14	X15	Y15	Z15	X16	Y16	Z16	X17	Y17	Z17	X18	Y18	Z18	
0	0	108.649	40.2129	42.8178	84.2738	28.4918	26.9492	69.2156	21.7673	5.03525	58.3727	16.1143	-13.2804	119.873	46.1351	-31.3607	114.421	40.9775	-58.5137	110.362	41.7468	-78.5896	149.748	43.5612	-36.7102	148.183	38.2369	-62.3046	153.996	31.9616	-90.4491	167.939	34.9575	-31.826	173.367	29.2241	-55.7441	181.053	24.1348	-81.1307	186.168	25.6935	-17.2976	197.624	19.6899	-34.5114	212.236	20.0785	-49.9255	165.801	50.2085	16.749	164.774	57.6003	47.21	135.011	59.4666	31.0078	
1	0.00833333	105.686	38.8608	38.1831	87.9732	26.4267	27.924	69.9598	20.0342	4.04039	55.0455	14.6714	-9.22377	119.207	44.1642	-31.1046	111.743	41.1293	-57.7061	113.057	38.7869	-82.6283	145.188	42.3299	-35.9468	146.838	35.8682	-66.2218	152.578	30.2322	-92.2884	164.97	34.2942	-34.2462	176.101	27.4584	-52.2045	178.137	22.8782	-80.9183	184.529	24.322	-16.5744	197.461	18.6164	-35.4939	208.787	18.7891	-55.0069	164.759	48.5687	16.9435	164.283	55.4333	46.8982	133.897	59.1112	27.7665	
2	0.0166667	104.847	39.088	43.7332	87.8657	25.0505	25.8273	68.614	19.3943	5.5941	57.4221	13.854	-10.883	119.514	43.1791	-31.3853	111.289	39.9359	-53.6064	113.751	37.5403	-79.159	145.574	40.6699	-40.7864	146.41	34.6728	-65.4333	152.797	27.9994	-93.1835	167.517	33.0297	-32.1603	171.767	27.1924	-52.4238	178.118	21.1214	-79.3495	185.018	24.5123	-17.7097	196.114	16.7595	-32.9064	207.524	17.9562	-50.9057	165.802	47.6956	16.1063	167.595	54.7528	44.3844	136.112	58.7727	29.4657	
3	0.025	103.801	37.9755	41.1679	85.8144	25.0446	29.1152	69.2816	18.1133	4.46715	55.1371	12.1042	-10.5727	117.513	42.3641	-29.0408	110.898	37.6219	-57.4838	114.518	35.5445	-80.5806	149.395	39.2049	-38.0504	150.39	32.1858	-65.6984	154.877	25.3028	-90.5558	166.229	33.1764	-33.7265	173.601	26.2105	-56.0056	176.77	19.7903	-79.8472	184.514	23.6772	-16.2073	194.091	16.4812	-31.3367	209.886	16.8014	-54.0126	163.227	49.008	15.9412	165.812	52.6135	47.5249	132.289	56.8419	26.2254	
4	0.0333333	103.012	38.3208	40.4519	87.1038	24.6102	28.3969	69.6147	18.34	6.26696	56.5954	11.4714	-11.3582	119.027	41.797	-32.3433	111.442	38.0919	-53.9016	115.181	33.8961	-79.2382	144.661	39.9522	-34.466	148.166	31.3887	-65.0202	151.601	26.0617	-88.6864	165.049	32.0055	-28.1389	170.569	25.69	-56.2724	176.899	20.0829	-80.8879	185.315	22.459	-12.6785	196.054	16.5023	-35.216	209.445	14.7285	-54.1888	163.832	48.0043	19.8804	168.955	53.873	47.8287	137.658	56.178	30.779	
5	0.0416667	103.979	37.4167	39.8812	89.405	23.9807	27.7372	72.6579	18.1921	10.2317	58.9556	12.5471	-8.45021	116.696	41.3184	-30.0396	115.907	36.5908	-56.3141	109.615	34.5254	-81.3439	147.505	39.167	-34.0571	150.828	32.2642	-60.9232	151.296	26.1271	-86.5342	164.833	32.2788	-31.219	173.859	26.2252	-52.3325	174.651	19.6847	-76.6862	187.741	21.7806	-15.2496	193.487	16.4186	-31.872	211.597	15.0946	-54.1911	168.342	45.9356	17.9366	166.45	52.3455	45.5942	137.716	55.4974	27.3413	
6	0.05	106.665	36.8944	41.1604	86.3206	26.1017	29.6011	68.0836	20.1946	8.14897	55.7825	13.9199	-6.95404	118.371	41.6123	-30.0982	111.155	37.8828	-55.82	115.567	34.432	-80.2661	145.233	40.1936	-35.2706	148.742	32.5174	-60.9396	152.458	25.541	-88.2393	169.135	32.2164	-30.5141	174.947	25.6903	-52.1441	178.29	19.5734	-76.1173	184.494	22.3499	-13.384	197.469	14.3565	-32.9147	210.793	14.0007	-54.7867	165.172	48.3205	20.6251	164.399	52.9388	48.0767	135.675	55.5138	28.413	
7	0.0583333	105.977	37.9188	45.6305	86.9152	26.8145	29.1755	69.7892	21.4433	8.811	55.8967	16.4851	-9.26927	116.803	43.632	-30.1346	114.565	38.0387	-57.6406	113.549	36.8163	-82.4987	147.6	39.6193	-36.7193	149.233	32.8289	-62.546	155.724	25.3354	-92.1318	169.696	31.1693	-31.271	175.828	25.0791	-53.4237	175.264	20.7884	-76.5414	184.58	22.7635	-12.5235	193.075	15.648	-31.0452	209.785	15.534	-52.2523	165.194	49.035	16.1816	165.708	53.7403	49.893	133.94	57.3028	31.4543	
8	0.0666667	108.72	38.1628	40.2183	87.2146	28.2265	29.1234	72.2118	23.6545	9.70736	56.6753	19.1004	-7.3957	119.401	44.8415	-31.6457	114.193	42.2326	-56.149	116.129	40.0324	-78.2795	148.669	41.6598	-35.6198	150.481	33.8921	-64.8799	152.491	28.4961	-86.7865	166.323	33.7598	-28.2016	172.013	26.4853	-51.3224	176.85	20.8497	-79.6777	186.277	22.9733	-14.5729	192.468	15.4775	-34.6769	208.993	13.1215	-50.484	170.072	48.8338	17.8882	169.628	52.2564	46.9545	138.203	56.7386	32.4505	
9	0.075	106.937	41.5179	44.6003	86.7163	29.7064	28.1029	70.5681	26.7778	9.43877	55.7164	23.0269	-9.87038	122.014	47.9894	-31.9436	113.248	45.2603	-52.8501	114.866	42.7198	-81.3349	145.935	44.6852	-38.8842	149.737	36.5112	-65.1559	151.127	31.9313	-88.2875	167.356	34.8741	-28.8684	170.643	28.2117	-52.2538	174.215	22.3748	-78.9374	188.167	22.8224	-15.0601	193.301	16.1757	-34.8695	204.675	15.5995	-54.8751	165.205	47.8997	20.1612	169.974	51.1845	45.7361	141.155	59.212	32.9237	
10	0.0833333	109.477	41.6272	41.1235	84.6365	32.4094	26.1024	67.1073	28.1847	8.14464	55.7089	23.9668	-11.6036	120.217	50.3529	-27.9154	112.586	47.7009	-56.7891	117.64	46.0712	-79.0171	148.059	44.3239	-37.8611	151.693	38.5315	-61.4698	152.443	32.3251	-88.7025	168.791	34.5889	-32.7298	171.678	28.7802	-53.537	173.873	22.7833	-79.2643	187.838	21.7381	-15.7222	192.056	16.1778	-35.8302	205.134	14.6384	-59.1443	165.952	48.0691	21.6941	169.468	52.4476	49.514	140.247	57.1472	33.5579	
11	0.0916667	107.714	41.3746	45.5183	89.5628	31.464	26.997	67.8136	28.7553	4.14636	53.3186	25.5834	-13.3464	117.715	51.3035	-30.0849	114.228	49.1226	-56.2829	113.719	47.4117	-81.506	144.954	45.9947	-34.7637	149.496	39.7222	-63.4132	148.58	34.6256	-89.845	167.518	35.4992	-32.1103	171.86	28.2944	-53.6034	171.725	21.9462	-81.7785	183.067	23.519	-20.3938	192.706	15.8176	-39.0967	204.443	12.5459	-58.2593	167.943	47.1585	16.5527	168.506	50.6166	47.9377	136.272	57.925	29.57	
